  <svg xmlns="http://www.w3.org/2000/svg" width="6000" height="1000" viewBox="0 0 1300 150" fill="none">
<path d="M1190.52 150.162C1199.94 140.358 1198.93 127.669 1192.05 117.068C1185.17 106.466 1173.11 97.548 1160.84 89.0754C1144.61 77.8734 1127.14 66.8568 1105.28 60.4552C1074.8 51.5336 1039.41 52.5947 1006.13 55.6692C947.038 61.1296 889.63 72.3172 833.801 85.6237C773.954 99.8875 712.93 116.935 649.009 114.655C591.648 112.609 552.517 95.0216 511.1 72.3555C472.472 51.2156 440.52 23.9441 392.584 10.1134C329.687 -8.03505 252.267 1.29887 196.299 26.8557C140.332 52.4125 103.896 91.9998 83.0652 133.396" stroke="#956ADF" stroke-width="0.864782" stroke-miterlimit="10"/>
<path d="M1195.96 145.822C1204.52 137.357 1202.01 126.024 1194.02 116.08C1186.04 106.164 1173.53 97.4775 1160.68 89.5051C1143.75 79.0094 1125.78 68.4195 1103.34 62.427C1071.44 53.9081 1034.48 54.7023 999.943 57.3789C941.082 61.938 884.011 72.4576 828.643 84.9396C769.747 98.2174 709.921 114.624 647.1 112.096C589.794 109.79 549.907 92.7874 508.069 71.3087C468.926 51.3065 436.395 25.8648 388.88 13.2262C326.744 -3.30194 250.948 6.4938 195.167 31.6016C139.154 56.7637 101.793 94.5867 79.7075 134.92" stroke="#956ADF" stroke-width="0.864782" stroke-miterlimit="10"/>
<path d="M1201.4 141.483C1209.09 134.357 1205.13 124.409 1195.98 115.095C1186.94 105.889 1173.96 97.4097 1160.51 89.939C1142.9 80.1528 1124.41 69.9944 1101.4 64.4014C1068.06 56.2947 1029.58 56.8236 993.76 59.0896C935.159 62.7954 878.407 72.5991 823.488 84.2565C765.553 96.5547 706.909 112.308 645.191 109.537C587.942 106.966 547.369 90.4919 505.036 70.2628C465.452 51.3457 432.291 27.7896 385.177 16.3399C323.829 1.43214 249.631 11.6897 194.036 36.3501C137.975 61.1175 99.6879 97.1748 76.3487 136.447" stroke="#956ADF" stroke-width="0.864782" stroke-miterlimit="10"/>
<path d="M1206.83 137.141C1213.67 131.355 1208.28 122.82 1197.94 114.106C1187.88 105.627 1174.39 97.3417 1160.34 90.3696C1142.06 81.293 1123.02 71.5755 1099.47 66.3724C1064.67 58.6845 1024.7 58.9529 987.575 60.797C929.26 63.6926 872.814 72.7389 818.333 83.5701C761.374 94.8935 703.898 109.983 643.284 106.976C586.088 104.138 544.791 88.2267 502.008 69.2137C461.939 51.4072 428.212 29.7095 381.475 19.4504C320.938 6.1598 248.315 16.884 192.906 41.0937C136.799 65.4648 97.5869 99.7579 72.9937 137.968" stroke="#956ADF" stroke-width="0.864782" stroke-miterlimit="10"/>
<path d="M1212.27 132.801C1218.25 128.354 1211.49 121.249 1199.9 113.119C1188.88 105.376 1174.83 97.2745 1160.18 90.801C1141.24 82.4338 1121.62 73.1654 1097.53 68.3459C1061.25 61.0861 1019.83 61.0973 981.392 62.5068C923.383 64.6337 867.238 72.8842 813.177 82.8845C757.21 93.2379 700.886 107.652 641.376 104.414C584.231 101.306 542.205 85.959 498.978 68.1653C458.42 51.4694 424.153 31.6318 377.773 22.56C318.074 10.8834 246.998 22.0758 191.776 45.8364C135.622 69.816 95.485 102.343 69.6375 139.492" stroke="#956ADF" stroke-width="0.864782" stroke-miterlimit="10"/>
<path d="M1217.71 128.461C1222.82 125.354 1214.75 119.688 1201.87 112.132C1189.93 105.128 1175.29 97.2069 1160.01 91.232C1140.43 83.5711 1120.21 74.763 1095.6 70.3173C1057.83 63.4955 1014.98 63.2526 975.207 64.2146C917.52 65.6112 861.675 73.0292 808.02 82.1985C753.057 91.5915 697.87 105.314 639.466 101.854C582.37 98.4725 539.614 83.6942 495.946 67.1182C454.894 51.5345 420.114 33.5521 374.071 25.6724C315.236 15.6034 245.764 27.3471 190.646 50.5836C134.526 74.242 93.3813 104.928 66.2798 141.014" stroke="#956ADF" stroke-width="0.864782" stroke-miterlimit="10"/>
<path d="M1223.14 124.121C1227.4 122.354 1218.07 118.127 1203.83 111.146C1191.04 104.872 1175.76 97.1375 1159.85 91.6644C1139.63 84.7083 1118.79 76.3699 1093.66 72.2918C1054.39 65.919 1010.13 65.4236 969.023 65.927C911.667 66.6285 856.128 73.1835 802.863 81.5171C748.92 89.9561 694.857 102.973 637.557 99.298C580.509 95.6386 537.017 81.434 492.915 66.074C451.363 51.6025 416.102 35.4723 370.367 28.7879C312.424 20.3185 244.459 32.5576 189.514 55.3323C133.361 78.6071 91.2783 107.515 62.9226 142.54" stroke="#956ADF" stroke-width="0.864782" stroke-miterlimit="10"/>
<path d="M1228.58 119.781C1231.97 119.353 1221.44 116.556 1205.79 110.16C1192.2 104.6 1176.23 97.0672 1159.68 92.0974C1138.85 85.8412 1117.37 77.9855 1091.72 74.2653C1050.95 68.3511 1005.29 67.6081 962.836 67.6368C905.824 67.6752 850.594 73.3401 797.703 80.8331C744.792 88.3277 691.838 100.624 635.644 96.738C578.645 92.7957 534.414 79.1712 489.882 65.0273C447.827 51.6696 412.11 37.3851 366.66 31.9007C309.64 25.0197 243.148 37.7654 188.379 60.0799C132.19 82.9728 89.1699 110.104 59.5601 144.066" stroke="#956ADF" stroke-width="0.864782" stroke-miterlimit="10"/>
<path d="M1234.02 115.44C1236.55 116.351 1224.85 114.965 1207.76 109.171C1193.4 104.307 1176.72 96.9878 1159.52 92.5262C1138.07 86.9636 1115.94 79.6032 1089.79 76.2346C1047.5 70.7886 1000.46 69.8026 956.656 69.3424C899.995 68.748 845.078 73.4988 792.552 80.1433C740.689 86.7047 688.829 98.263 633.744 94.1737C576.79 89.9454 531.814 76.9058 486.859 63.9747C444.295 51.7325 408.154 39.284 362.967 35.0062C306.896 29.6992 241.849 42.9642 187.258 64.8185C131.026 87.3311 87.0727 112.687 56.2087 145.586" stroke="#956ADF" stroke-width="0.864782" stroke-miterlimit="10"/>
<path d="M1239.45 111.101C1241.13 113.352 1228.3 113.351 1209.72 108.186C1194.63 103.993 1177.21 96.9089 1159.35 92.9602C1137.31 88.0847 1114.5 81.2341 1087.85 78.2107C1044.04 73.2425 995.632 72.0184 950.468 71.0548C894.162 69.8531 839.574 73.6708 787.392 79.4619C736.592 85.0997 685.807 95.9021 631.83 91.6163C574.923 87.0972 529.2 74.6503 483.825 62.9306C440.748 51.8037 404.21 41.1818 359.26 38.1216C304.165 34.3711 240.535 48.1715 186.12 69.5687C129.855 91.693 84.966 115.273 52.8505 147.112" stroke="#956ADF" stroke-width="0.864782" stroke-miterlimit="10"/>
<path d="M1244.9 106.761C1245.71 110.352 1231.78 111.707 1211.68 107.199C1195.88 103.653 1177.7 96.8232 1159.19 93.3923C1136.55 89.1976 1113.08 82.8679 1085.92 80.1833C1040.58 75.7025 990.811 74.2467 944.288 72.7637C888.338 70.9804 834.092 73.8472 782.239 78.777C732.515 83.5055 682.795 93.5329 629.925 89.0569C573.061 84.2438 526.589 72.3946 480.795 61.883C437.201 51.8763 400.291 43.0633 355.557 41.2336C301.464 39.0204 239.226 53.3752 184.99 74.3138C128.684 96.0514 82.8645 117.858 49.4922 148.634" stroke="#956ADF" stroke-width="0.864782" stroke-miterlimit="10"/>
<path d="M1250.33 102.421C1250.28 107.351 1235.26 110.034 1213.65 106.213C1197.14 103.293 1178.21 96.732 1159.02 93.8237C1135.8 90.3033 1111.64 84.5073 1083.98 82.1567C1037.12 78.1729 985.989 76.4918 938.103 74.4751C882.51 72.1324 828.618 74.0356 777.081 78.0945C728.445 81.925 679.779 91.1582 628.015 86.5C571.194 81.3864 523.968 70.1445 477.763 60.8393C433.649 51.9545 396.392 44.9345 351.855 44.3496C298.786 43.6529 237.915 58.5814 183.86 79.0629C127.513 100.414 80.763 120.446 46.1366 150.161" stroke="#956ADF" stroke-width="0.864782" stroke-miterlimit="10"/>
<path d="M1255.77 98.08C1254.86 104.349 1238.74 108.333 1215.61 105.225C1198.39 102.912 1178.71 96.6338 1158.86 94.2544C1135.05 91.4003 1110.2 86.1525 1082.04 84.1278C1033.65 80.6506 981.167 78.7506 931.92 76.1826C876.687 73.3014 823.161 74.2314 771.928 77.4082C724.391 80.355 676.767 88.7732 626.109 83.9377C569.331 78.5173 521.348 67.8922 474.736 59.7887C430.097 52.0288 392.514 46.781 348.155 47.4569C296.129 48.2511 236.603 63.7789 182.731 83.805C126.341 104.769 78.661 123.03 42.7804 151.683" stroke="#956ADF" stroke-width="0.864782" stroke-miterlimit="10"/>
<path d="M1261.21 93.7397C1259.43 101.348 1242.22 106.607 1217.57 104.239C1199.64 102.516 1179.21 96.5314 1158.69 94.6873C1134.3 92.4932 1108.77 87.8031 1080.11 86.1028C1030.19 83.1402 976.344 81.0292 925.735 77.8939C870.859 74.495 817.716 74.4422 766.771 76.7242C720.347 78.8048 673.753 86.3841 624.199 81.3792C567.465 75.6471 518.719 65.6469 471.705 58.7435C426.538 52.1118 388.644 48.6138 344.451 50.5713C293.482 52.8293 235.287 68.9803 181.599 88.5526C125.163 109.127 76.5574 125.615 39.4227 153.206" stroke="#956ADF" stroke-width="0.864782" stroke-miterlimit="10"/>
<path d="M1266.64 89.4009C1264.01 98.3497 1245.69 104.86 1219.53 103.252C1200.89 102.107 1179.72 96.4241 1158.53 95.1185C1133.55 93.5797 1107.33 89.4568 1078.17 88.0745C1026.73 85.6344 971.519 83.3205 919.554 79.602C865.029 75.7013 812.284 74.6641 761.617 76.0384C716.315 77.2673 670.743 83.9869 622.293 78.8173C565.604 72.7689 516.094 63.403 468.676 57.6934C422.979 52.1931 384.784 50.4193 340.752 53.6808C290.849 57.377 233.974 74.1767 180.472 93.2968C123.993 113.48 74.457 128.2 36.0708 154.729" stroke="#956ADF" stroke-width="0.864782" stroke-miterlimit="10"/>
<path d="M1272.08 85.0599C1268.59 95.3478 1249.14 103.092 1221.5 102.266C1202.12 101.685 1180.22 96.3114 1158.36 95.5507C1132.8 94.6607 1105.9 91.1163 1076.24 90.0472C1023.26 88.1392 966.686 85.6288 913.368 81.311C859.193 76.9244 806.858 74.903 756.458 75.3536C712.285 75.7483 667.728 81.5842 620.382 76.2581C563.737 69.8853 513.461 61.1634 465.644 56.6474C419.417 52.2817 380.926 52.2066 337.046 56.7944C288.212 61.8984 232.655 79.3758 179.339 98.0436C122.811 117.835 72.3523 130.787 32.7094 156.254" stroke="#956ADF" stroke-width="0.864782" stroke-miterlimit="10"/>
<path d="M1277.52 80.7197C1273.16 92.3467 1252.58 101.31 1223.46 101.278C1203.33 101.256 1180.72 96.1947 1158.2 95.9822C1132.05 95.7361 1104.46 92.7782 1074.3 92.0207C1019.8 90.6513 961.853 87.9554 907.183 83.0224C853.352 78.1645 801.441 75.1618 751.301 74.6712C708.265 74.2494 664.714 79.1776 618.472 73.7013C561.875 66.9977 510.83 58.931 462.612 55.6039C415.855 52.376 377.066 53.974 333.342 59.9089C285.573 66.3952 231.336 84.5757 178.206 102.793C121.633 122.189 70.2488 133.374 29.3543 157.778" stroke="#956ADF" stroke-width="0.864782" stroke-miterlimit="10"/>
<path d="M1282.95 76.3781C1277.74 89.3443 1256.01 99.514 1225.42 100.291C1204.54 100.821 1181.22 96.0719 1158.03 96.4122C1131.29 96.8053 1103.02 94.4419 1072.36 93.9913C1016.33 93.1667 957.01 90.2951 900.999 84.7293C847.507 79.4127 796.029 75.4353 746.147 73.9827C704.25 72.7634 661.709 76.7584 616.565 71.1367C560.017 64.0959 508.202 56.6955 459.584 54.551C412.294 52.4656 373.202 55.7048 329.643 63.0156C282.932 70.8554 230.021 89.7645 177.08 107.533C120.455 126.538 68.1484 135.955 25.9997 159.298" stroke="#956ADF" stroke-width="0.864782" stroke-miterlimit="10"/>
<path d="M1288.39 72.0399C1282.31 86.3468 1259.41 97.7118 1227.39 99.305C1205.73 100.382 1181.71 95.9476 1157.87 96.8457C1130.53 97.8748 1101.59 96.1138 1070.43 95.9668C1012.87 95.6951 952.159 92.6573 894.813 86.4411C841.655 80.6787 790.615 75.7345 740.988 73.3007C700.233 71.3016 658.699 74.3378 614.656 68.5802C558.156 61.1927 505.572 54.4699 456.551 53.5079C408.731 52.5683 369.317 57.423 325.937 66.1321C280.266 75.3014 228.696 94.9632 175.946 112.282C119.27 130.891 66.0431 138.545 22.6378 160.826" stroke="#956ADF" stroke-width="0.864782" stroke-miterlimit="10"/>
<path d="M1293.83 67.6998C1286.89 83.3458 1262.81 95.9013 1229.35 98.3191C1206.91 99.941 1182.21 95.8214 1157.7 97.2788C1129.77 98.9407 1100.16 97.7869 1068.5 97.9403C1009.42 98.228 947.306 95.0336 888.634 88.151C835.802 81.9539 785.211 76.0557 735.836 72.6168C696.221 69.8587 655.699 71.9105 612.752 66.0203C556.306 58.2796 502.949 52.2455 453.525 52.4596C405.175 52.669 365.42 59.1121 322.239 69.2434C277.589 79.7199 227.378 100.155 174.819 117.028C118.092 135.239 63.9428 141.131 19.2859 162.351" stroke="#956ADF" stroke-width="0.864782" stroke-miterlimit="10"/>
<path d="M1299.27 63.3582C1291.47 80.3433 1266.19 94.0829 1231.31 97.33C1208.08 99.4937 1182.69 95.6873 1157.54 97.7088C1129 100 1098.73 99.4586 1066.56 99.9124C1005.96 100.764 942.438 97.4243 882.446 89.8594C829.933 83.2373 779.791 76.3978 730.675 71.9314C692.197 68.4318 652.689 69.4737 610.839 63.4604C554.449 55.357 500.317 50.0244 450.491 51.4131C401.612 52.7746 361.49 60.7806 318.534 72.3549C274.881 84.1178 226.054 105.346 173.683 121.773C116.903 139.586 61.8359 143.715 15.9223 163.872" stroke="#956ADF" stroke-width="0.864782" stroke-miterlimit="10"/>
<path d="M1304.71 59.0182C1296.04 77.3425 1269.55 92.263 1233.28 96.3443C1209.24 99.0481 1183.18 95.5565 1157.37 98.1405C1128.23 101.06 1097.3 101.135 1064.62 101.885C1002.51 103.307 937.562 99.8328 876.263 91.5695C824.061 84.5319 774.364 76.7672 725.522 71.2477C688.173 67.0258 649.692 67.0338 608.933 60.9023C552.604 52.4281 497.697 47.8067 447.463 50.3667C398.06 52.8851 357.537 62.43 314.833 75.4681C272.149 88.5014 224.731 110.536 172.555 126.521C115.721 143.933 59.736 146.303 12.5683 165.399" stroke="#956ADF" stroke-width="0.864782" stroke-miterlimit="10"/>
<path d="M1310.14 54.6787C1300.62 74.3421 1272.91 90.4404 1235.24 95.3574C1210.39 98.6013 1183.66 95.4213 1157.2 98.5726C1127.45 102.117 1095.87 102.815 1062.69 103.857C999.061 105.856 932.676 102.259 870.079 93.2784C818.18 85.8333 768.925 77.1626 720.365 70.5612C684.136 65.6362 646.695 64.5847 607.024 58.3397C550.759 49.4836 495.075 45.5893 444.433 49.3174C394.507 52.9928 353.548 64.059 311.132 78.5784C269.386 92.8677 223.409 115.722 171.426 131.264C114.536 148.274 57.6336 148.887 9.21426 166.921" stroke="#956ADF" stroke-width="0.864782" stroke-miterlimit="10"/>
<path d="M1315.58 50.3388C1305.2 71.3429 1276.25 88.6157 1237.2 94.3717C1211.53 98.1542 1184.14 95.2858 1157.04 99.0059C1126.67 103.175 1094.45 104.498 1060.75 105.833C995.61 108.412 927.777 104.703 863.893 94.9901C812.287 87.144 763.463 77.5895 715.206 69.8792C680.08 64.267 643.7 62.1337 605.113 55.7832C548.919 46.534 492.455 43.3779 441.399 48.2726C390.954 53.1098 349.521 65.678 307.426 81.6932C266.585 97.2305 222.081 120.911 170.292 136.014C113.346 152.62 55.5283 151.476 5.85231 168.449" stroke="#956ADF" stroke-width="0.864782" stroke-miterlimit="10"/>
<path d="M1321.02 45.9991C1309.77 68.3423 1279.59 86.7912 1239.16 93.3846C1212.67 97.7072 1184.61 95.1472 1156.87 99.4362C1125.89 104.229 1093.02 106.18 1058.81 107.803C992.171 110.967 922.87 107.159 857.711 96.6972C806.391 88.4579 757.979 78.0374 710.052 69.1924C676.012 62.9107 640.712 59.6715 603.206 53.2204C547.088 43.5669 489.841 41.1635 438.371 47.2231C387.407 53.222 345.465 67.2828 303.724 84.8017C263.753 101.579 220.755 126.092 169.162 140.756C112.16 156.956 53.4248 154.057 2.49722 169.967" stroke="#956ADF" stroke-width="0.864782" stroke-miterlimit="10"/>
<path d="M1326.46 41.6582C1314.35 65.3406 1282.91 84.964 1241.13 92.3979C1213.8 97.259 1185.08 95.009 1156.71 99.8686C1125.1 105.283 1091.6 107.863 1056.88 109.778C988.731 113.531 917.948 109.636 851.527 98.408C800.485 89.7804 752.463 78.5177 704.898 68.5094C671.926 61.5709 637.728 57.2083 601.299 50.6629C545.266 40.5939 487.232 38.9576 435.343 46.179C383.867 53.3428 341.369 68.8833 300.026 87.9171C260.891 105.933 219.433 131.279 168.036 145.506C110.975 161.299 51.3275 156.647 -0.856812 171.496" stroke="#956ADF" stroke-width="0.864782" stroke-miterlimit="10"/>
<path d="M1331.89 37.3174C1318.92 62.3389 1286.23 83.1368 1243.09 91.4097C1214.92 96.8109 1185.55 94.8678 1156.54 100.299C1124.31 106.335 1090.18 109.549 1054.94 111.749C985.292 116.097 913.013 112.125 845.341 100.117C794.566 91.1077 746.909 79.0252 699.739 67.8248C667.806 60.2423 634.745 54.7372 599.387 48.1039C543.446 37.6066 484.621 36.7501 432.307 45.1316C380.321 53.462 337.232 70.4775 296.317 91.0294C257.984 110.284 218.099 136.462 166.899 150.251C109.78 165.635 49.2191 159.234 -4.21928 173.02" stroke="#956ADF" stroke-width="0.864782" stroke-miterlimit="10"/>
<path d="M1337.33 32.9775C1323.5 59.3382 1289.54 81.3123 1245.05 90.4241C1216.04 96.367 1186.01 94.7275 1156.38 100.731C1123.51 107.388 1088.76 111.236 1053 113.721C981.86 118.667 908.065 114.629 839.159 101.826C788.644 92.4391 741.318 79.5561 694.584 67.138C663.666 58.9227 631.77 52.259 597.48 45.541C541.643 34.6011 482.018 34.5388 429.278 44.0821C376.788 53.579 333.066 72.0662 292.615 94.1394C255.052 114.635 216.771 141.64 165.769 154.994C108.591 169.966 47.1156 161.816 -7.57437 174.54" stroke="#956ADF" stroke-width="0.864782" stroke-miterlimit="10"/>
<path d="M1342.77 28.6387C1328.08 56.34 1292.85 79.487 1247.02 89.4378C1217.15 95.9209 1186.48 94.5881 1156.21 101.164C1122.72 108.443 1087.35 112.925 1051.07 115.696C978.431 121.243 903.102 117.153 832.975 103.537C782.707 93.7779 735.68 80.1151 689.427 66.4554C659.496 57.6152 628.798 49.7786 595.573 42.9839C539.848 31.587 479.42 32.3364 426.25 43.0367C373.257 53.7017 328.871 73.6607 288.917 97.252C252.095 118.994 215.407 146.76 164.642 159.742C107.36 174.234 45.0178 164.403 -10.9289 176.065" stroke="#956ADF" stroke-width="0.864782" stroke-miterlimit="10"/>
<path d="M1348.21 24.2969C1332.66 53.3373 1296.15 77.6605 1248.98 88.4502C1218.26 95.4766 1186.94 94.4459 1156.05 101.595C1121.92 109.494 1085.94 114.614 1049.13 117.668C975.003 123.819 898.123 119.689 826.791 105.245C776.763 95.1155 729.988 80.6919 684.27 65.7698C655.29 56.3112 625.833 47.2905 593.664 40.4223C538.066 28.5523 476.856 30.1903 423.219 41.9883C369.76 53.8838 324.639 75.2555 285.213 100.363C249.105 123.357 214.089 151.953 163.511 164.486C106.182 178.584 42.9122 166.987 -14.2861 177.588" stroke="#956ADF" stroke-width="0.864782" stroke-miterlimit="10"/>
<path d="M1353.64 19.958C1337.23 50.3376 1299.45 75.8385 1250.94 87.4639C1219.37 95.0321 1187.37 94.273 1155.88 102.026C1121.09 110.51 1084.53 116.346 1047.2 119.641C971.601 126.484 893.133 122.241 820.607 106.955C770.812 96.4591 724.245 81.2876 679.117 65.0855C651.057 55.0101 622.88 44.7989 591.758 37.8636C536.301 25.5047 474.249 27.956 420.191 40.9413C366.223 53.9762 320.386 76.8564 281.512 103.476C246.093 127.73 212.775 157.15 162.38 169.234C105.006 182.935 40.8101 169.576 -17.6423 179.114" stroke="#956ADF" stroke-width="0.864782" stroke-miterlimit="10"/>
<path d="M1359.08 15.6162C1341.81 47.3349 1302.74 74.0135 1252.9 86.4763C1220.47 94.5878 1187.85 94.1643 1155.72 102.458C1120.3 111.598 1083.11 117.997 1045.26 121.613C968.159 128.982 888.124 124.806 814.423 108.665C764.846 97.8062 718.443 81.8997 673.96 64.4C646.782 53.7093 619.93 42.3012 589.848 35.3036C534.549 22.4365 471.641 25.7204 417.16 39.8946C362.679 54.0689 316.105 78.4624 277.811 106.589C243.057 132.112 211.459 162.345 161.25 173.98C103.827 187.286 38.7091 172.161 -21 180.637" stroke="#956ADF" stroke-width="0.864782" stroke-miterlimit="10"/>
</svg>
