<svg width="535" height="73" viewBox="0 0 535 73" fill="none" xmlns="http://www.w3.org/2000/svg">
<g clip-path="url(#clip0_3687_17719)">
<path d="M0 0.97168V21.6097H31.7051V72.9997H50.1773V21.6097H81.5983V0.97168H0Z" fill="#666CFF"/>
<path d="M81.5991 22.9812H63.127V73.0024H81.5991V22.9812Z" fill="#666CFF"/>
<path d="M18.4722 22.9812H0V73.0024H18.4722V22.9812Z" fill="#666CFF"/>
<path d="M128.422 30.3748V47.9998H123.522V38.2748L120.197 47.9998H116.097L112.747 38.1998V47.9998H107.847V30.3748H113.772L118.197 41.8248L122.522 30.3748H128.422ZM139.661 48.1748C138.011 48.1748 136.494 47.7914 135.111 47.0248C133.728 46.2414 132.628 45.1664 131.811 43.7998C131.011 42.4164 130.611 40.8581 130.611 39.1248C130.611 37.3914 131.011 35.8414 131.811 34.4748C132.628 33.0914 133.728 32.0164 135.111 31.2498C136.494 30.4831 138.011 30.0998 139.661 30.0998C141.328 30.0998 142.844 30.4831 144.211 31.2498C145.594 32.0164 146.686 33.0914 147.486 34.4748C148.286 35.8414 148.686 37.3914 148.686 39.1248C148.686 40.8581 148.286 42.4164 147.486 43.7998C146.686 45.1664 145.594 46.2414 144.211 47.0248C142.828 47.7914 141.311 48.1748 139.661 48.1748ZM139.661 43.6248C140.911 43.6248 141.894 43.2164 142.611 42.3998C143.344 41.5831 143.711 40.4914 143.711 39.1248C143.711 37.7248 143.344 36.6248 142.611 35.8248C141.894 35.0081 140.911 34.5998 139.661 34.5998C138.394 34.5998 137.403 35.0081 136.686 35.8248C135.969 36.6248 135.611 37.7248 135.611 39.1248C135.611 40.5081 135.969 41.6081 136.686 42.4248C137.403 43.2248 138.394 43.6248 139.661 43.6248ZM162.964 50.9498L161.014 48.0248C160.464 48.1248 159.905 48.1748 159.339 48.1748C157.689 48.1748 156.172 47.7914 154.789 47.0248C153.405 46.2414 152.305 45.1664 151.489 43.7998C150.689 42.4164 150.289 40.8581 150.289 39.1248C150.289 37.3914 150.689 35.8414 151.489 34.4748C152.305 33.0914 153.405 32.0164 154.789 31.2498C156.172 30.4831 157.689 30.0998 159.339 30.0998C161.005 30.0998 162.522 30.4831 163.889 31.2498C165.272 32.0164 166.364 33.0914 167.164 34.4748C167.964 35.8414 168.364 37.3914 168.364 39.1248C168.364 40.5748 168.072 41.9164 167.489 43.1498C166.905 44.3664 166.105 45.3831 165.089 46.1998L168.814 50.9498H162.964ZM155.289 39.1248C155.289 40.5081 155.647 41.6081 156.364 42.4248C157.08 43.2248 158.072 43.6248 159.339 43.6248C160.589 43.6248 161.572 43.2164 162.289 42.3998C163.022 41.5831 163.389 40.4914 163.389 39.1248C163.389 37.7248 163.022 36.6248 162.289 35.8248C161.572 35.0081 160.589 34.5998 159.339 34.5998C158.072 34.5998 157.08 35.0081 156.364 35.8248C155.647 36.6248 155.289 37.7248 155.289 39.1248ZM181.741 45.1248H175.491L174.541 47.9998H169.391L175.816 30.3748H181.466L187.866 47.9998H182.691L181.741 45.1248ZM180.516 41.3748L178.616 35.6748L176.741 41.3748H180.516ZM205.238 30.3748V47.9998H200.338V40.9248H194.363V47.9998H189.463V30.3748H194.363V36.9998H200.338V30.3748H205.238ZM210.417 48.1998C209.55 48.1998 208.85 47.9664 208.317 47.4998C207.8 47.0164 207.542 46.4081 207.542 45.6748C207.542 44.9414 207.8 44.3331 208.317 43.8498C208.85 43.3664 209.55 43.1248 210.417 43.1248C211.267 43.1248 211.95 43.3664 212.467 43.8498C213 44.3331 213.267 44.9414 213.267 45.6748C213.267 46.3914 213 46.9914 212.467 47.4748C211.95 47.9581 211.267 48.1998 210.417 48.1998ZM229.486 36.2498C229.486 37.3164 229.236 38.2914 228.736 39.1748C228.253 40.0414 227.511 40.7414 226.511 41.2748C225.528 41.7914 224.32 42.0498 222.886 42.0498H220.461V47.9998H215.561V30.3748H222.886C224.303 30.3748 225.503 30.6248 226.486 31.1248C227.486 31.6248 228.236 32.3164 228.736 33.1998C229.236 34.0831 229.486 35.0998 229.486 36.2498ZM222.411 38.1498C223.795 38.1498 224.486 37.5164 224.486 36.2498C224.486 34.9664 223.795 34.3248 222.411 34.3248H220.461V38.1498H222.411ZM240.23 47.9998L236.355 42.2498V47.9998H231.455V29.4998H236.355V39.4748L240.23 33.9748H246.105L240.58 41.0248L246.205 47.9998H240.23Z" fill="#F2F6F9"/>
</g>
<defs>
<clipPath id="clip0_3687_17719">
<rect width="535" height="73" fill="white" transform="translate(0 -0.000244141)"/>
</clipPath>
</defs>
</svg>
